# xmcd
#
# Track frame offsets:
#        150
#        13899
#        33956
#        52723
#        69971
#        85884
#        102997
#        117689
#        134142
#        150941
#        167929
#        185264
#        202671
#        219313
#        234831
#
# Disc length: 3295 seconds
#
# Revision: 0
# Processed by: cddbd v1.5.2PL0 Copyright (c) Steve Scherf et al.
# Submitted via: CDGFix 3.8
#
DISCID=be0cdd0f
DTITLE=Various Artist - CB80026
DYEAR=1900
DGENRE=Karaoke
TTITLE0=Trick Pony - Pour Me
TTITLE1=Jessica Andrews - Who Am I
TTITLE2=Jamie O'Neal - There Is No Arizona
TTITLE3=Leann Rimes - Can't Fight The Moonlight
TTITLE4=Cyndi Thompson - What I Really Meant To Say
TTITLE5=Lee Ann Womack - Why They Call It Falling
TTITLE6=Jamie O'Neal - When I Think About Angels
TTITLE7=Reba McEntire - I'm A Survivor
TTITLE8=Martina McBride - When God Fearin' Women Get The Blues
TTITLE9=Tammy Cochran - Angels In Waiting
TTITLE10=Carolyn Dawn Johnson - Complicated
TTITLE11=Faith Hill - There You'll Be
TTITLE12=Pam Tillis - Please
TTITLE13=Sherrie Austin - Jolene
TTITLE14=SheDaisy - Still Holding Out For You
EXTD=
EXTT0=
EXTT1=
EXTT2=
EXTT3=
EXTT4=
EXTT5=
EXTT6=
EXTT7=
EXTT8=
EXTT9=
EXTT10=
EXTT11=
EXTT12=
EXTT13=
EXTT14=
PLAYORDER=
